<svg xmlns="http://www.w3.org/2000/svg" width="120" height="38.64" viewBox="0 0 120 38.64"><g transform="translate(24.965 14.685)"><g transform="translate(0 6.676)"><path d="M13.685-70.75A8.552,8.552,0,0,1,9.4-71.837a7.665,7.665,0,0,1-3.008-3.021,9.249,9.249,0,0,1-1.072-4.531,9.26,9.26,0,0,1,1.1-4.531,8.31,8.31,0,0,1,3.068-3.051A8.972,8.972,0,0,1,13.8-88.029a8.972,8.972,0,0,1,4.318,1.057,8.1,8.1,0,0,1,3.068,3.051,8.946,8.946,0,0,1,1.1,4.531,8.958,8.958,0,0,1-1.132,4.531,8.085,8.085,0,0,1-3.1,3.021A8.89,8.89,0,0,1,13.685-70.75Zm0-3.685a4.234,4.234,0,0,0,2.144-.574,3.85,3.85,0,0,0,1.578-1.661,5.9,5.9,0,0,0,.6-2.719,5.221,5.221,0,0,0-1.221-3.685,4.107,4.107,0,0,0-3.038-1.269,3.931,3.931,0,0,0-2.978,1.269,5.221,5.221,0,0,0-1.221,3.685,5.083,5.083,0,0,0,1.191,3.655A3.75,3.75,0,0,0,13.685-74.435Z" transform="translate(-5.316 88.029)" fill="#333"/></g><g transform="translate(20.044 6.706)"><path d="M14.958-85.033a6.112,6.112,0,0,1,2.115-2.084,5.649,5.649,0,0,1,2.948-.755v4.441h-1.1a4.083,4.083,0,0,0-2.948.936,4.306,4.306,0,0,0-1.013,3.263V-70.9h-4.17V-87.631h4.17Z" transform="translate(-10.789 87.873)" fill="#333"/></g><g transform="translate(32.076 6.706)"><path d="M31.279-87.873A6.692,6.692,0,0,1,36.193-86a7.3,7.3,0,0,1,1.847,5.287V-70.9H33.87v-9.244a4.275,4.275,0,0,0-.983-3.021,3.5,3.5,0,0,0-2.68-1.027A3.611,3.611,0,0,0,27.5-83.16a4.275,4.275,0,0,0-.983,3.021V-70.9h-4.17v-9.244a4.275,4.275,0,0,0-.983-3.021,3.5,3.5,0,0,0-2.68-1.027,3.522,3.522,0,0,0-2.71,1.027,4.153,4.153,0,0,0-1.013,3.021V-70.9h-4.17V-87.631h4.17v2.024a5.459,5.459,0,0,1,2.085-1.661,6.427,6.427,0,0,1,2.77-.6,7.214,7.214,0,0,1,3.455.816,6,6,0,0,1,2.353,2.386A5.861,5.861,0,0,1,27.973-87,6.6,6.6,0,0,1,31.279-87.873Z" transform="translate(-10.789 87.873)" fill="#333"/></g><g transform="translate(62.841)"><path d="M11-117.63a2.427,2.427,0,0,1-1.817-.725,2.26,2.26,0,0,1-.745-1.752,2.26,2.26,0,0,1,.745-1.752A2.427,2.427,0,0,1,11-122.584a2.543,2.543,0,0,1,1.847.725,2.341,2.341,0,0,1,.715,1.752,2.341,2.341,0,0,1-.715,1.752A2.543,2.543,0,0,1,11-117.63Zm2.055,1.994V-98.9H8.89v-16.736Z" transform="translate(-8.443 122.584)" fill="#333"/></g><g transform="translate(71.567 1.329)"><rect width="4.17" height="22.354" transform="translate(0)" fill="#333"/></g><g transform="translate(79.846 1.329)"><path d="M20.557-93.35l-5.6-7.129v7.129h-4.17V-115.7h4.17v12.718l5.54-7.1h5.42l-7.267,8.4,7.326,8.338Z" transform="translate(-10.789 115.704)" fill="#333"/></g></g><path d="M-1986,459.1a9.524,9.524,0,0,0,6.734-2.789,9.523,9.523,0,0,0,2.789-6.734V459.1Zm9.523-18.1h7.618v10.477a7.619,7.619,0,0,1-2.231,5.387,7.618,7.618,0,0,1-5.387,2.231Z" transform="translate(1987.905 -421)" fill="#f0d"/><circle cx="3.81" cy="3.81" r="3.81" transform="translate(0 26.667)" fill="#f0d"/><path d="M138.571,268.572H130v8.571a8.571,8.571,0,0,1,8.571-8.571ZM147.143,260h-8.572A8.571,8.571,0,0,0,130,268.571h8.572A8.571,8.571,0,0,0,147.143,260Z" transform="translate(-118.571 -248.571)" fill="#333" fill-rule="evenodd"/><path d="M120,209.523v9.524a9.523,9.523,0,0,1,9.523-9.523h0A9.524,9.524,0,0,0,139.048,200h-9.524A9.523,9.523,0,0,0,120,209.523Z" transform="translate(-110.476 -200)" fill="#333" fill-rule="evenodd"/></svg>